<?xml version="1.0" encoding="UTF-8"?>
<svg id="_Слой_2" data-name="Слой 2" xmlns="http://www.w3.org/2000/svg" viewBox="0 0 163.41 390.92">
  <defs>
    <style>
      .cls-1 {
        fill: #0064ff;
      }
    </style>
  </defs>
  <g id="_Слой_1-2" data-name="Слой 1">
    <path class="cls-1" d="M80.9,0C-9.29,75.83,12.19,241.5,12.19,241.5l68.71-47.93,67.16,47.93C164.76,79.45,80.9,0,80.9,0Zm0,172.67c-18.27,0-33.08-14.81-33.08-33.08s14.81-33.08,33.08-33.08,33.08,14.81,33.08,33.08-14.81,33.08-33.08,33.08Z"/>
    <path class="cls-1" d="M80.9,125.38c10.95,0,20.05,7.89,21.96,18.28,.24-1.32,.39-2.67,.39-4.06,0-12.34-10-22.34-22.35-22.34s-22.35,10-22.35,22.34c0,1.39,.15,2.75,.39,4.06,1.91-10.4,11.01-18.28,21.96-18.28Z"/>
    <path class="cls-1" d="M0,324.56l80.9-54.42,82.51,54.42v-46.95l-82.51-55.97L0,276.71v47.85Z"/>
    <path class="cls-1" d="M85.32,293.42h-11.74v73.13h11.74v-73.13Z"/>
    <path class="cls-1" d="M51.01,315.99h-11.74v74.93h11.74v-74.93Z"/>
    <path class="cls-1" d="M121.87,315.99h-11.74v74.93h11.74v-74.93Z"/>
  </g>
</svg>